<svg width="24" height="17" viewBox="0 0 24 17" fill="none" xmlns="http://www.w3.org/2000/svg">
<path d="M1.29824 17C0.930408 17 0.622293 16.864 0.373897 16.592C0.125501 16.32 0.000869969 15.9838 4.47668e-06 15.5833C-0.000861015 15.1829 0.12377 14.8467 0.373897 14.5747C0.624024 14.3027 0.932139 14.1667 1.29824 14.1667H22.0701C22.4379 14.1667 22.7464 14.3027 22.9957 14.5747C23.245 14.8467 23.3692 15.1829 23.3683 15.5833C23.3674 15.9838 23.2428 16.3205 22.9944 16.5934C22.746 16.8663 22.4379 17.0019 22.0701 17H1.29824ZM1.29824 9.91666C0.930408 9.91666 0.622293 9.78066 0.373897 9.50866C0.125501 9.23666 0.000869969 8.90043 4.47668e-06 8.49999C-0.000861015 8.09955 0.12377 7.76332 0.373897 7.49132C0.624024 7.21933 0.932139 7.08333 1.29824 7.08333H22.0701C22.4379 7.08333 22.7464 7.21933 22.9957 7.49132C23.245 7.76332 23.3692 8.09955 23.3683 8.49999C23.3674 8.90043 23.2428 9.23713 22.9944 9.51007C22.746 9.78302 22.4379 9.91854 22.0701 9.91666H1.29824ZM1.29824 2.83333C0.930408 2.83333 0.622293 2.69733 0.373897 2.42533C0.125501 2.15333 0.000869969 1.81711 4.47668e-06 1.41667C-0.000861015 1.01622 0.12377 0.679999 0.373897 0.408C0.624024 0.136 0.932139 0 1.29824 0H22.0701C22.4379 0 22.7464 0.136 22.9957 0.408C23.245 0.679999 23.3692 1.01622 23.3683 1.41667C23.3674 1.81711 23.2428 2.1538 22.9944 2.42675C22.746 2.69969 22.4379 2.83522 22.0701 2.83333H1.29824Z" fill="white"/>
</svg>
